<?xml version="1.0" encoding="UTF-8"?>
<svg width="397.12mm" height="245.43mm" version="1.1" viewBox="0 0 1407.1167 869.64594" xmlns="http://www.w3.org/2000/svg">
 <g transform="translate(-342.27 -57.539)">
  <rect x="342.27" y="57.539" width="1407.1" height="869.65" color="#000000" color-rendering="auto" fill="#8bc34a" image-rendering="auto" shape-rendering="auto" solid-color="#000000" style="isolation:auto;mix-blend-mode:normal"/>
  <rect x="342.27" y="126.75" width="1407.1" height="731.23" color="#000000" color-rendering="auto" fill="#fff" image-rendering="auto" shape-rendering="auto" solid-color="#000000" style="isolation:auto;mix-blend-mode:normal"/>
  <path d="m991.11 579.31h108.59v170.4c-34.035-1.9221-69.422 3.4521-108.59 0z" fill="#424242" fill-rule="evenodd"/>
  <rect x="667.76" y="224.37" width="756.14" height="416.53" color="#000000" color-rendering="auto" fill="#424242" image-rendering="auto" shape-rendering="auto" solid-color="#000000" style="isolation:auto;mix-blend-mode:normal"/>
  <path d="m991.11 641.09h108.59v28.436c-34.035-0.32076-69.422 0.57607-108.59 0z" fill="#333" fill-rule="evenodd"/>
  <rect x="704.06" y="245.53" width="688.39" height="372.3" fill="#fff" fill-rule="evenodd"/>
  <path d="m1082.8 245.53-378.29 372.3h687.9v-372.3z" fill="#fff" fill-rule="evenodd"/>
  <path d="m1386.3 245.53-364.24 372.3h370.43v-372.3z" fill="#fff" fill-rule="evenodd"/>
  <path d="m879.06 760.35h332.68c1.8049 0 3.9316-0.58351 3.2579-1.2004l-16.282-14.9c-0.6741-0.6169-7.5587-1.2004-9.3632-1.2004h-287.9c-1.8048 0-8.6892 0.58351-9.3635 1.2004l-16.282 14.9c-0.67432 0.61685 1.4527 1.2004 3.2573 1.2004z" fill="#333" fill-rule="evenodd"/>
  <rect x="736.05" y="366.43" width="70.965" height="70.965" color="#000000" color-rendering="auto" fill="#7e57c2" image-rendering="auto" shape-rendering="auto" solid-color="#000000" style="isolation:auto;mix-blend-mode:normal"/>
  <rect x="811.99" y="366.43" width="70.965" height="70.965" color="#000000" color-rendering="auto" fill="#2196f3" image-rendering="auto" shape-rendering="auto" solid-color="#000000" style="isolation:auto;mix-blend-mode:normal"/>
  <rect x="736.05" y="443.23" width="146.68" height="70.965" color="#000000" color-rendering="auto" fill="#4db6ac" image-rendering="auto" shape-rendering="auto" solid-color="#000000" style="isolation:auto;mix-blend-mode:normal"/>
  <rect x="736.05" y="518.55" width="146.68" height="70.965" color="#000000" color-rendering="auto" fill="#f44336" image-rendering="auto" shape-rendering="auto" solid-color="#000000" style="isolation:auto;mix-blend-mode:normal"/>
  <rect x="736.05" y="290.07" width="70.965" height="70.965" color="#000000" color-rendering="auto" fill="#2196f3" image-rendering="auto" shape-rendering="auto" solid-color="#000000" style="isolation:auto;mix-blend-mode:normal"/>
  <rect x="811.99" y="290.07" width="70.965" height="70.965" color="#000000" color-rendering="auto" fill="#8bc34a" image-rendering="auto" shape-rendering="auto" solid-color="#000000" style="isolation:auto;mix-blend-mode:normal"/>
  <rect x="887.58" y="366.43" width="87.633" height="70.965" color="#000000" color-rendering="auto" fill="#ff7043" image-rendering="auto" shape-rendering="auto" solid-color="#000000" style="isolation:auto;mix-blend-mode:normal"/>
  <rect x="963.51" y="366.43" width="70.965" height="70.965" color="#000000" color-rendering="auto" fill="#ff7043" image-rendering="auto" shape-rendering="auto" solid-color="#000000" style="isolation:auto;mix-blend-mode:normal"/>
  <rect x="887.58" y="443.23" width="146.68" height="70.965" color="#000000" color-rendering="auto" fill="#dce775" image-rendering="auto" shape-rendering="auto" solid-color="#000000" style="isolation:auto;mix-blend-mode:normal"/>
  <rect x="887.58" y="518.55" width="146.68" height="70.965" color="#000000" color-rendering="auto" fill="#2196f3" image-rendering="auto" shape-rendering="auto" solid-color="#000000" style="isolation:auto;mix-blend-mode:normal"/>
  <rect x="887.58" y="290.07" width="84.602" height="70.965" color="#000000" color-rendering="auto" fill="#cddc39" image-rendering="auto" shape-rendering="auto" solid-color="#000000" style="isolation:auto;mix-blend-mode:normal"/>
  <rect x="963.51" y="290.07" width="70.965" height="70.965" color="#000000" color-rendering="auto" fill="#cddc39" image-rendering="auto" shape-rendering="auto" solid-color="#000000" style="isolation:auto;mix-blend-mode:normal"/>
  <rect transform="scale(1,-1)" x="1039.4" y="-513.16" width="70.965" height="70.965" color="#000000" color-rendering="auto" fill="#7e57c2" image-rendering="auto" shape-rendering="auto" solid-color="#000000" style="isolation:auto;mix-blend-mode:normal"/>
  <rect transform="scale(1,-1)" x="1115.3" y="-513.16" width="70.965" height="70.965" color="#000000" color-rendering="auto" fill="#2196f3" image-rendering="auto" shape-rendering="auto" solid-color="#000000" style="isolation:auto;mix-blend-mode:normal"/>
  <rect transform="scale(1,-1)" x="1039.4" y="-436.35" width="146.68" height="70.965" color="#000000" color-rendering="auto" fill="#4db6ac" image-rendering="auto" shape-rendering="auto" solid-color="#000000" style="isolation:auto;mix-blend-mode:normal"/>
  <rect transform="scale(1,-1)" x="1039.4" y="-361.03" width="146.68" height="70.965" color="#000000" color-rendering="auto" fill="#e91e63" image-rendering="auto" shape-rendering="auto" solid-color="#000000" style="isolation:auto;mix-blend-mode:normal"/>
  <rect transform="scale(1,-1)" x="1039.4" y="-589.52" width="70.965" height="70.965" color="#000000" color-rendering="auto" fill="#ff9800" image-rendering="auto" shape-rendering="auto" solid-color="#000000" style="isolation:auto;mix-blend-mode:normal"/>
  <rect transform="scale(1,-1)" x="1115.3" y="-589.52" width="70.965" height="70.965" color="#000000" color-rendering="auto" fill="#8bc34a" image-rendering="auto" shape-rendering="auto" solid-color="#000000" style="isolation:auto;mix-blend-mode:normal"/>
  <rect x="1215.1" y="366.43" width="70.965" height="70.965" color="#000000" color-rendering="auto" fill="#ec407a" image-rendering="auto" shape-rendering="auto" solid-color="#000000" style="isolation:auto;mix-blend-mode:normal"/>
  <rect x="1291.1" y="366.43" width="70.965" height="70.965" color="#000000" color-rendering="auto" fill="#2196f3" image-rendering="auto" shape-rendering="auto" solid-color="#000000" style="isolation:auto;mix-blend-mode:normal"/>
  <rect x="1215.1" y="443.23" width="146.68" height="70.965" color="#000000" color-rendering="auto" fill="#8bc34a" image-rendering="auto" shape-rendering="auto" solid-color="#000000" style="isolation:auto;mix-blend-mode:normal"/>
  <rect x="1215.1" y="518.55" width="146.68" height="70.965" color="#000000" color-rendering="auto" fill="#ef5350" image-rendering="auto" shape-rendering="auto" solid-color="#000000" style="isolation:auto;mix-blend-mode:normal"/>
  <rect x="1215.1" y="290.07" width="70.965" height="70.965" color="#000000" color-rendering="auto" fill="#29b6f6" image-rendering="auto" shape-rendering="auto" solid-color="#000000" style="isolation:auto;mix-blend-mode:normal"/>
  <rect x="1291.1" y="290.07" width="70.965" height="70.965" color="#000000" color-rendering="auto" fill="#ffc107" image-rendering="auto" shape-rendering="auto" solid-color="#000000" style="isolation:auto;mix-blend-mode:normal"/>
  <g transform="translate(1668.6 -34.286)" fill="#424242" stroke-width="1px">
   <path d="m-916.52 307.41 1.5178-0.70295q0.21568 0.78284 0.79083 1.1982 0.57514 0.4074 1.4698 0.4074 0.84675 0 1.342-0.4713 0.50326-0.47131 0.50326-1.2621 0-1.0305-1.7095-1.8373-0.23965-0.11983-0.36746-0.17574-1.9331-0.94261-2.5802-1.7015-0.63905-0.76686-0.63905-1.8692 0-1.4299 0.96657-2.3166 0.97456-0.88668 2.5482-0.88668 1.2941 0 2.1648 0.50325 0.87071 0.49527 1.2062 1.4299l-1.4858 0.76687q-0.35148-0.55119-0.77485-0.80681-0.41538-0.25562-0.95858-0.25562-0.76686 0-1.2222 0.39941-0.44734 0.39941-0.44734 1.0704 0 1.0544 1.9811 1.9651 0.15177 0.0719 0.23964 0.11184 1.7334 0.79882 2.3805 1.5657 0.64704 0.75888 0.64704 1.9012 0 1.6615-1.0464 2.6441-1.0464 0.97456-2.8278 0.97456-1.4938 0-2.4524-0.68699-0.95059-0.68698-1.2462-1.9651z"/>
   <path d="m-906.6 309.75v-6.055h-1.326v-1.5178h1.326v-2.8678h1.7334v2.8678h1.326v1.5178h-1.326v6.055h-1.7334z"/>
   <path d="m-894.93 309.75h-1.7334v-0.98255q-0.46331 0.65503-1.0864 0.97456-0.61509 0.31953-1.4139 0.31953-1.6056 0-2.5322-1.0944-0.91864-1.1024-0.91864-3.0115 0-1.8133 0.94261-2.9237 0.9426-1.1184 2.4604-1.1184 0.92663 0 1.5817 0.39142 0.66302 0.38343 0.96657 1.1104v-1.2382h1.7334v7.5728zm-1.6855-3.8104q0-1.1743-0.55118-1.8293-0.5432-0.65503-1.5257-0.65503-0.98255 0-1.5497 0.67899-0.55917 0.67101-0.55917 1.8692 0 1.2062 0.54319 1.8612 0.5432 0.65503 1.5337 0.65503 0.93462 0 1.5178-0.71095 0.59112-0.71094 0.59112-1.8692z"/>
   <path d="m-890.8 303.39q0.27959-0.75089 0.73491-1.1104 0.46331-0.35947 1.1423-0.35947 0.36746 0 0.71893 0.0879 0.35947 0.0879 0.70296 0.25562l-0.62307 1.4698q-0.22367-0.15977-0.48728-0.23166-0.25562-0.0799-0.57515-0.0799-0.86272 0-1.2382 0.69497-0.37544 0.68698-0.37544 2.3166v3.3231h-1.7334v-7.5888h1.7334v1.2222z"/>
   <path d="m-886.09 309.75v-6.055h-1.326v-1.5178h1.326v-2.8678h1.7334v2.8678h1.326v1.5178h-1.326v6.055h-1.7334z"/>
  </g>
  <rect x="1325" y="256.04" width="24.126" height="24.372" ry="2.441" color="#000000" color-rendering="auto" fill="#fff" image-rendering="auto" shape-rendering="auto" solid-color="#000000" style="isolation:auto;mix-blend-mode:normal"/>
  <rect x="1327.2" y="258.05" width="19.605" height="20.327" ry="2.0359" color="#000000" color-rendering="auto" fill="#26c6da" image-rendering="auto" shape-rendering="auto" solid-color="#000000" style="isolation:auto;mix-blend-mode:normal"/>
  <circle cx="1337" cy="263.89" r="4.0927" color="#000000" color-rendering="auto" fill="#00838f" image-rendering="auto" shape-rendering="auto" solid-color="#000000" style="isolation:auto;mix-blend-mode:normal"/>
  <path d="m1337.1 269.33a12.912 7.811 0 0 0 -9.9114 2.8079v4.6306c0 0.89139 0.9091 1.6088 2.037 1.6088h15.532c1.1279 0 2.0356-0.71738 2.0356-1.6088v-4.7721a12.912 7.811 0 0 0 -9.6933 -2.6664z" color="#000000" color-rendering="auto" fill="#00838f" image-rendering="auto" shape-rendering="auto" solid-color="#000000" style="isolation:auto;mix-blend-mode:normal"/>
  <rect x="1263.8" y="261.65" width="60" height="9.2857" ry="1.1607" color="#000000" color-rendering="auto" fill="#bdbdbd" image-rendering="auto" shape-rendering="auto" solid-color="#000000" style="isolation:auto;mix-blend-mode:normal"/>
 </g>
</svg>
